<?xml version="1.0" standalone="no"?>
<!DOCTYPE svg PUBLIC "-//W3C//DTD SVG 20010904//EN"
 "http://www.w3.org/TR/2001/REC-SVG-20010904/DTD/svg10.dtd">
<svg version="1.0" xmlns="http://www.w3.org/2000/svg"
 width="764.000000pt" height="348.000000pt" viewBox="0 0 764.000000 348.000000"
 preserveAspectRatio="xMidYMid meet">

<g transform="translate(0.000000,348.000000) scale(0.100000,-0.100000)"
fill="#000000" stroke="none">
<path d="M0 1740 l0 -1740 3820 0 3820 0 0 1740 0 1740 -3820 0 -3820 0 0
-1740z m1467 1078 l73 -42 0 -293 0 -293 -205 0 -205 0 0 154 c0 152 0 155
-22 162 -32 10 -132 6 -203 -9 l-60 -13 4 -459 c4 -510 0 -480 74 -570 23 -27
37 -47 32 -43 -6 3 -75 43 -155 90 -208 123 -191 75 -188 551 l3 384 26 34
c19 24 116 86 330 211 167 97 313 179 324 181 41 11 101 -5 172 -45z m415
-242 c129 -74 162 -105 179 -169 14 -52 11 -685 -4 -737 -5 -19 -18 -47 -28
-62 -16 -22 -484 -304 -616 -372 -58 -29 -119 -21 -203 27 l-75 43 -3 292 -2
292 205 0 205 0 0 -150 0 -150 28 -11 c29 -12 128 -6 212 12 l51 11 -3 456
c-3 506 1 474 -72 561 -42 50 -45 59 -13 39 12 -8 75 -45 139 -82z m1962 -151
c53 -121 96 -223 96 -227 0 -5 -22 -8 -49 -8 -49 0 -49 0 -67 45 l-17 45 -72
0 -72 0 -17 -45 c-17 -44 -19 -45 -61 -45 l-44 0 14 33 c7 17 46 106 85 197
39 91 78 180 86 199 8 19 16 32 18 30 2 -2 47 -103 100 -224z m2461 10 c48
-110 91 -210 96 -222 8 -22 6 -23 -42 -23 -49 0 -50 0 -69 45 l-19 45 -71 0
-71 0 -19 -45 c-18 -43 -21 -45 -61 -45 -35 0 -40 3 -34 18 43 112 191 440
196 434 4 -4 47 -97 94 -207z m-1185 195 c20 -5 44 -16 54 -23 17 -12 17 -15
0 -49 -17 -36 -18 -37 -45 -22 -56 28 -128 13 -166 -36 -24 -29 -34 -88 -24
-128 22 -81 106 -121 185 -88 21 9 40 16 42 16 3 0 34 -68 34 -75 0 -12 -92
-35 -138 -35 -130 1 -222 95 -222 229 0 43 36 134 63 159 55 52 143 73 217 52z
m480 -135 c56 -80 105 -147 109 -149 4 -3 56 62 115 144 59 83 110 150 112
150 2 0 4 -101 4 -225 l0 -225 -45 0 -45 0 0 102 0 101 -67 -96 c-38 -53 -70
-97 -73 -97 -3 0 -34 42 -70 93 l-65 92 -3 -97 -3 -98 -39 0 -40 0 0 225 c0
124 2 225 4 225 2 0 50 -65 106 -145z m-3240 50 l0 -85 100 0 100 0 0 85 0 85
40 0 40 0 0 -220 0 -220 -40 0 -40 0 0 90 0 90 -100 0 -100 0 0 -90 0 -90 -45
0 -45 0 0 220 0 220 45 0 45 0 0 -85z m700 45 l0 -40 -105 0 -105 0 0 -45 0
-45 90 0 90 0 0 -45 0 -45 -90 0 -90 0 0 -45 0 -44 108 -3 107 -3 3 -42 3 -43
-155 0 -156 0 0 220 0 220 150 0 150 0 0 -40z m222 -32 l46 -71 39 71 38 72
53 0 c62 0 63 9 -25 -127 -30 -46 -52 -90 -49 -98 3 -8 32 -54 64 -102 32 -49
62 -94 66 -100 5 -10 -7 -13 -51 -13 l-58 0 -49 77 -48 77 -42 -77 -41 -77
-54 0 c-40 0 -52 3 -48 13 3 7 34 59 70 114 l66 101 -69 106 -69 106 57 0 57
0 47 -72z m989 44 c43 -23 59 -38 82 -82 25 -49 28 -63 25 -126 -4 -79 -27
-124 -83 -163 -47 -32 -89 -41 -192 -41 l-93 0 0 220 0 220 104 0 c94 0 109
-3 157 -28z m499 -12 l0 -40 -105 0 -105 0 0 -45 0 -44 93 -3 92 -3 3 -42 3
-43 -95 0 -96 0 0 -45 0 -45 110 0 110 0 0 -45 0 -45 -155 0 -155 0 0 220 0
220 150 0 150 0 0 -40z m600 -180 l0 -220 -40 0 -40 0 0 220 0 220 40 0 40 0
0 -220z m1190 45 l0 -175 105 0 105 0 0 -45 0 -45 -150 0 -150 0 0 220 0 220
45 0 45 0 0 -175z m315 -525 c0 -13 -268 -15 -2337 -18 -2334 -2 -2338 -2
-2338 18 0 20 4 20 2338 18 2069 -3 2337 -5 2337 -18z m-2836 -344 c39 -90 71
-168 71 -175 0 -6 -15 -11 -34 -11 -31 0 -36 4 -47 35 -13 34 -15 35 -66 35
-51 0 -54 -1 -70 -35 -13 -28 -23 -35 -45 -35 -15 0 -28 5 -28 11 0 10 142
339 146 339 1 0 34 -74 73 -164z m-1615 139 c39 -17 42 -23 23 -48 -10 -15
-17 -16 -45 -6 -18 6 -44 8 -58 5 -42 -11 -28 -46 31 -78 90 -48 109 -101 58
-158 -36 -40 -95 -50 -158 -26 -50 20 -52 22 -30 53 15 22 17 22 50 6 26 -13
42 -14 63 -7 43 15 35 45 -20 74 -69 38 -88 58 -88 97 0 44 14 69 48 87 35 20
81 20 126 1z m309 1 c106 -44 138 -178 64 -263 -79 -90 -213 -80 -272 21 -81
139 61 304 208 242z m377 -21 l0 -35 -70 0 -70 0 0 -35 0 -35 60 0 60 0 0 -35
0 -35 -60 0 -60 0 0 -66 0 -65 -32 3 -33 3 -3 155 c-1 85 0 160 2 167 4 9 33
13 106 13 l100 0 0 -35z m260 0 c0 -34 -1 -35 -40 -35 l-40 0 0 -135 0 -135
-30 0 -30 0 0 135 0 135 -40 0 c-39 0 -40 1 -40 35 l0 35 110 0 110 0 0 -35z
m954 21 c18 -8 41 -24 50 -37 22 -32 20 -97 -4 -137 l-21 -34 23 -36 c12 -20
28 -47 36 -59 14 -22 13 -23 -24 -23 -36 0 -41 4 -74 55 -25 40 -41 55 -57 55
-21 0 -23 -5 -23 -56 l0 -55 -32 3 -33 3 -3 155 c-1 85 0 160 2 167 7 18 117
17 160 -1z m376 -21 l0 -35 -80 0 -80 0 0 -35 0 -35 70 0 70 0 0 -30 0 -30
-70 0 -70 0 0 -35 0 -35 86 0 85 0 -3 -32 -3 -33 -117 -3 -118 -3 0 171 0 170
115 0 115 0 0 -35z m-1184 -60 c16 -47 31 -85 35 -85 3 0 16 25 28 56 15 41
18 60 11 74 -17 32 -12 41 22 38 33 -3 35 -6 89 -143 11 -30 12 -29 38 55 27
85 27 85 63 88 l36 3 -60 -165 c-34 -92 -64 -166 -67 -166 -3 0 -22 40 -41 89
-19 50 -37 88 -40 85 -2 -3 -24 -47 -47 -97 -38 -84 -43 -89 -51 -67 -9 23
-108 279 -119 308 -4 8 7 12 35 12 l41 0 27 -85z"/>
<path d="M3717 2408 c-10 -24 -17 -47 -17 -51 0 -4 18 -7 40 -7 l40 0 -17 43
c-23 61 -28 63 -46 15z"/>
<path d="M6182 2406 c-12 -27 -22 -50 -22 -52 0 -2 18 -4 41 -4 44 0 44 1 14
75 l-12 30 -21 -49z"/>
<path d="M4100 2415 l0 -135 50 0 c99 0 146 50 138 146 -7 81 -58 124 -148
124 l-40 0 0 -135z"/>
<path d="M3943 1560 c-11 -29 -10 -30 17 -30 28 0 29 1 19 30 -6 17 -14 30
-18 30 -4 0 -12 -13 -18 -30z"/>
<path d="M2643 1673 c-12 -2 -34 -18 -48 -34 -85 -102 56 -234 147 -137 26 28
30 38 25 76 -7 68 -59 107 -124 95z"/>
<path d="M4230 1620 c0 -48 1 -50 28 -50 49 0 77 35 61 78 -7 18 -16 22 -49
22 l-40 0 0 -50z"/>
</g>
</svg>
